<svg xmlns="http://www.w3.org/2000/svg" viewBox="0 0 256 256">
  <defs>
    <linearGradient id="g" x1="0" x2="1" y1="0" y2="1">
      <stop offset="0%" stop-color="#5b7cfa"/>
      <stop offset="100%" stop-color="#1f2937"/>
    </linearGradient>
  </defs>
  <path fill="url(#g)" d="M128 20l84 30v58c0 63-38 102-84 128-46-26-84-65-84-128V50z"/>
  <path fill="#ffffff" d="M128 56c-36 0-66 30-66 66 0 49 40 76 66 92 26-16 66-43 66-92 0-36-30-66-66-66zm0 18a48 48 0 0 1 48 48c0 17-7 33-20 48h-16v20h-24v-20h-16c-13-15-20-31-20-48a48 48 0 0 1 48-48zm-10 28v16h-16v24h16v16h20v-16h16v-24h-16v-16z"/>
</svg>